
<svg xmlns="http://www.w3.org/2000/svg" aria-label="Settings" class="_ab6-" color="rgb(0, 0, 0)" fill="rgb(0, 0, 0)" height="24" role="img" viewBox="0 0 24 24" width="24">
    <line id="moreIconLineInactive1" fill="none" stroke="currentColor" stroke-linecap="round" stroke-linejoin="round" stroke-width="2" x1="3" x2="21" y1="4" y2="4"></line>
    <line id="moreIconLineInactive2"  fill="none" stroke="currentColor" stroke-linecap="round" stroke-linejoin="round" stroke-width="2" x1="3" x2="21" y1="12" y2="12"></line>
    <line id="moreIconLineInactive3"  fill="none" stroke="currentColor" stroke-linecap="round" stroke-linejoin="round" stroke-width="2" x1="3" x2="21" y1="20" y2="20"></line>

    <path id="moreIconPathActive" d="M3.5 6.5h17a1.5 1.5 0 0 0 0-3h-17a1.5 1.5 0 0 0 0 3Zm17 4h-17a1.5 1.5 0 0 0 0 3h17a1.5 1.5 0 0 0 0-3Zm0 7h-17a1.5 1.5 0 0 0 0 3h17a1.5 1.5 0 0 0 0-3Z"></path>
</svg>