
<svg aria-label="Report a problem" class="x1lliihq x1n2onr6" color="rgb(0, 0, 0)" fill="rgb(0, 0, 0)" height="18" role="img" viewBox="0 0 24 24" width="18">
    <title>Report a problem</title>
    <path d="M18.001 1h-12a5.006 5.006 0 0 0-5 5v9.005a5.006 5.006 0 0 0 5 5h2.514l2.789 2.712a1 1 0 0 0 1.394 0l2.787-2.712h2.516a5.006 5.006 0 0 0 5-5V6a5.006 5.006 0 0 0-5-5Zm3 14.005a3.003 3.003 0 0 1-3 3h-2.936a1 1 0 0 0-.79.387l-2.274 2.212-2.276-2.212a1 1 0 0 0-.79-.387H6a3.003 3.003 0 0 1-3-3V6a3.003 3.003 0 0 1 3-3h12a3.003 3.003 0 0 1 3 3Zm-9-1.66a1.229 1.229 0 1 0 1.228 1.228A1.23 1.23 0 0 0 12 13.344Zm0-8.117a1.274 1.274 0 0 0-.933.396 1.108 1.108 0 0 0-.3.838l.347 4.861a.892.892 0 0 0 1.77 0l.348-4.86a1.106 1.106 0 0 0-.3-.838A1.272 1.272 0 0 0 12 5.228Z"></path>
</svg>