
<svg aria-label="Theme icon" class="x1lliihq x1n2onr6" color="rgb(0, 0, 0)" fill="rgb(0, 0, 0)" height="18" role="img" viewBox="0 0 24 24" width="18">
    <title>Theme icon</title>
    <path d="M12.00018,4.5a1,1,0,0,0,1-1V2a1,1,0,0,0-2,0V3.5A1.00005,1.00005,0,0,0,12.00018,4.5ZM5.28241,6.69678A.99989.99989,0,1,0,6.69647,5.28271l-1.06054-1.061A.99989.99989,0,0,0,4.22186,5.63574ZM4.50018,12a1,1,0,0,0-1-1h-1.5a1,1,0,0,0,0,2h1.5A1,1,0,0,0,4.50018,12Zm.78223,5.30322-1.06055,1.061a.99989.99989,0,1,0,1.41407,1.41406l1.06054-1.061a.99989.99989,0,0,0-1.41406-1.41407ZM12.00018,19.5a1.00005,1.00005,0,0,0-1,1V22a1,1,0,0,0,2,0V20.5A1,1,0,0,0,12.00018,19.5Zm6.71729-2.19678a.99989.99989,0,0,0-1.41406,1.41407l1.06054,1.061A.99989.99989,0,0,0,19.778,18.36426ZM22.00018,11h-1.5a1,1,0,0,0,0,2h1.5a1,1,0,0,0,0-2ZM18.01044,6.98975a.996.996,0,0,0,.707-.293l1.06055-1.061A.99989.99989,0,0,0,18.364,4.22168l-1.06054,1.061a1,1,0,0,0,.707,1.707ZM12.00018,6a6,6,0,1,0,6,6A6.00657,6.00657,0,0,0,12.00018,6Zm0,10a4,4,0,1,1,4-4A4.00458,4.00458,0,0,1,12.00018,16Z"></path>
</svg>